# xmcd CD database file
#
# Track frame offsets:
#	150
#	4777
#	12170
#	27918
#	39085
#	50712
#	56637
#	72701
#	85541
#	96964
#	100119
#	111761
#	118814
#	127174
#	132720
#	144420
#	148859
#	157185
#	166861
#	178748
#
# Disc length: 2408 seconds
#
# Revision: 0
# Processed by: cddbd v1.5.2PL0 Copyright (c) Steve Scherf et al.
# Submitted via: CDex 1.51
#
DISCID=21096614
DTITLE=The Dino 5 - Baby Loves Hip-Hop
DYEAR=2007
DGENRE=Jazz
TTITLE0=Dino 5 Theme
TTITLE1=Story part 1- Pick Out A Book
TTITLE2=I May Be Big and Scary (But I'm Really Pretty Nice)
TTITLE3=Story Part 2 - At The Playgroung
TTITLE4=Yea Me Too
TTITLE5=Story Part 3 -Back to His Buddies
TTITLE6=Tell Me More
TTITLE7=Story Part 4 - Play Date
TTITLE8=That's Funny
TTITLE9=Story Part 5 - Basement Jams
TTITLE10=Jump
TTITLE11=Story Part 6 - Night Turns To Day
TTITLE12=What About ten?
TTITLE13=Story Part 7 - Talent Show
TTITLE14=Dino 5 theme (long version w/solos)
TTITLE15=Teo Start It Off
TTITLE16=Sometimes I Like To Scream
TTITLE17=Story Part 8 - Burp talking dino wins
TTITLE18=Glad  That We Came, Now We Have To Go
TTITLE19=Story Part 9 - Good Night Momma
EXTD=YEAR: 2007
EXTT0=
EXTT1=
EXTT2=
EXTT3=
EXTT4=
EXTT5=
EXTT6=
EXTT7=
EXTT8=
EXTT9=
EXTT10=
EXTT11=
EXTT12=
EXTT13=
EXTT14=
EXTT15=
EXTT16=
EXTT17=
EXTT18=
EXTT19=
PLAYORDER=
